<?xml version="1.0" standalone="no"?>
<!DOCTYPE svg PUBLIC "-//W3C//DTD SVG 20010904//EN"
 "http://www.w3.org/TR/2001/REC-SVG-20010904/DTD/svg10.dtd">
<svg version="1.0" xmlns="http://www.w3.org/2000/svg"
 width="85.000000pt" height="85.000000pt" viewBox="0 0 85.000000 85.000000"
 preserveAspectRatio="xMidYMid meet">
<metadata>
Created by potrace 1.14, written by Peter Selinger 2001-2017
</metadata>
<g transform="translate(0.000000,85.000000) scale(0.100000,-0.100000)"
fill="#000000" stroke="none">
<path d="M377 713 c-32 -65 -84 -169 -116 -231 -65 -125 -65 -126 18 -120 27
1 48 1 47 -2 -1 -3 -7 -16 -13 -30 -7 -14 -31 -72 -54 -130 -23 -58 -46 -109
-51 -114 -10 -12 -11 -66 0 -65 6 0 109 121 219 258 16 19 65 79 111 133 45
54 82 102 82 108 0 5 -18 10 -40 10 l-39 0 18 43 c10 23 37 80 60 127 22 47
41 95 41 108 0 22 -2 22 -113 22 l-112 0 -58 -117z"/>
</g>
</svg>
